<?xml version="1.0" encoding="UTF-8"?>
<!DOCTYPE svg PUBLIC "-//W3C//DTD SVG 1.1//EN" "http://www.w3.org/Graphics/SVG/1.1/DTD/svg11.dtd">
<!-- Creator: CorelDRAW -->
<svg xmlns="http://www.w3.org/2000/svg" xml:space="preserve" width="80mm" height="30mm" version="1.1" style="shape-rendering:geometricPrecision; text-rendering:geometricPrecision; image-rendering:optimizeQuality; fill-rule:evenodd; clip-rule:evenodd"
viewBox="0 0 8000 3000"
 xmlns:xlink="http://www.w3.org/1999/xlink"
 xmlns:xodm="http://www.corel.com/coreldraw/odm/2003">
 <defs>
  <style type="text/css">
   <![CDATA[
    .fil0 {fill:black}
    .fil1 {fill:black;fill-rule:nonzero}
   ]]>
  </style>
 </defs>
 <g id="Слой_x0020_1">
  <metadata id="CorelCorpID_0Corel-Layer"/>
  <path class="fil0" d="M3407.46 1408.03l0 558.73c0,51.91 58.14,110.05 110.06,110.05l406.91 0 0 -93.12 -389.98 0c-19.82,0 -33.87,-14.04 -33.87,-33.86l0 -482.54c0,-140.39 43.28,-245.76 112.06,-319.69 70.15,-75.4 184.67,-145.92 294.29,-145.92l542.35 0c19.51,0 25.4,5.89 25.4,25.4l0 550.26c0,112.11 -63.9,213.29 -137.4,285.89 -120.61,119.15 -249.35,120.46 -412.86,120.46l0 93.12c186.01,0 330.98,4.83 480.5,-145.95 78.86,-79.53 162.88,-204.18 162.88,-328.12l0 -609.52c0,-27.35 -57.31,-84.66 -84.65,-84.66l-601.61 0c-62.25,0 -138.8,31.06 -183.63,53.41 -150.96,75.27 -290.45,261.38 -290.45,446.06z"/>
  <path class="fil1" d="M3733.48 1749.9l0 -514.42 519.66 0 0 117.58 -350.99 0 0 66.14 164.1 0c73.54,0 131.44,15.32 173.68,45.93 42.24,30.62 63.36,70.42 63.36,119.42 0,48.99 -21.12,88.8 -63.36,119.42 -42.24,30.62 -100.14,45.93 -173.68,45.93l-332.77 0zm168.67 -117.58l154.98 0c22.5,0 40.27,-4.66 53.34,-13.97 13.06,-9.31 19.6,-20.57 19.6,-33.8 0,-13.23 -6.54,-24.5 -19.6,-33.81 -13.07,-9.31 -30.84,-13.96 -53.34,-13.96l-154.98 0 0 95.54z"/>
 </g>
</svg>
